:SAMPLES-PER-SECOND 30
:FULLY-SPECIFIED
:DEGREES
218
root  7.2907 36.954 -0.88231 7.02039 82.1213 11.0094
RightUpLeg  19.7038 -0.87554 -6.67465
RightLeg  22.2066 5.48141 2.32872
RightFoot  -25.6006 0.735117 7.21653
RightToes  5.82063e-011 0 -3.6325e-017
Spine  8.27311 0.627348 6.4665
Spine1  10.2325 1.48976 -2.04531
HEad  -20.6677 -0.611197 0.774316
LeftShoulder1  -0.129701 3.90319 -26.2575
LeftArm  -21.3926 6.91129 -38.9152
LeftForeArm  86.4484 -79.0343 -101.245
LeftHand  -0.0192165 6.31093 1.66039
RightShoulder  -0.372113 -4.76291 22.5626
RightArm  -13.5774 1.68862 45.0193
RightForeArm  116.276 74.2013 136.53
RightHand  -1.33031 8.02436 -11.818
LeftUpLeg  -26.6048 0.243492 2.0898
LeftLeg  21.8049 -4.9434 -1.86411
LeftFoot  4.13535 0.260958 -2.05679
LeftToes  -1.20963e-009 8.6283e-011 2.04439e-011
219
root  8.98594 36.5428 -1.10829 12.9242 81.6675 18.1779
RightUpLeg  19.1664 1.02304 -8.20035
RightLeg  30.9584 4.75089 2.84091
RightFoot  -23.2158 1.22961 13.7844
RightToes  5.82063e-011 0 -3.6325e-017
Spine  9.7032 0.946581 3.9006
Spine1  9.85352 1.37191 -1.30472
HEad  -20.4906 -0.594177 1.26066
LeftShoulder1  -0.140385 3.93617 -26.2271
LeftArm  -21.7898 7.09566 -38.7696
LeftForeArm  86.4336 -79.0584 -100.93
LeftHand  -0.0180957 6.29889 1.83086
RightShoulder  -0.350465 -4.70248 22.2078
RightArm  -14.0324 2.30563 44.9368
RightForeArm  114.854 74.6847 134.791
RightHand  -1.23032 7.84588 -11.1071
LeftUpLeg  -26.713 0.609442 0.123843
LeftLeg  29.2985 -5.42463 -2.92625
LeftFoot  3.09576 -0.0825296 0.582666
LeftToes  -1.20963e-009 8.6283e-011 2.04439e-011
220
root  10.5964 36.2359 -1.31017 21.683 81.6098 27.7203
RightUpLeg  14.5523 1.56628 -10.4465
RightLeg  44.3188 3.29378 3.03984
RightFoot  -13.8092 0.374279 18.8711
RightToes  5.82063e-011 0 -3.6325e-017
Spine  10.6845 1.06588 1.28155
Spine1  9.8837 1.03818 -0.869632
HEad  -20.8783 -0.883225 1.89062
LeftShoulder1  -0.0197288 3.5646 -25.4227
LeftArm  -22.2459 6.19521 -39.4288
LeftForeArm  83.1097 -79.1904 -97.1229
LeftHand  -0.0254285 5.53297 2.04829
RightShoulder  -0.296919 -4.52629 21.8921
RightArm  -14.8609 2.96013 44.7119
RightForeArm  112.754 75.0053 133.332
RightHand  -1.27485 7.84033 -11.498
LeftUpLeg  -26.3196 0.914619 -2.18006
LeftLeg  35.1903 -4.97057 -3.40141
LeftFoot  -1.90233 -0.182148 2.29192
LeftToes  -1.20963e-009 8.6283e-011 2.04439e-011
221
root  12.1298 36.0773 -1.51286 28.4057 80.6265 34.9528
RightUpLeg  6.49032 3.83311 -11.6354
RightLeg  58.9518 1.60764 2.50419
RightFoot  2.01251 -1.55337 13.9898
RightToes  5.82063e-011 0 -3.6325e-017
Spine  11.7753 1.22778 -1.01016
Spine1  9.619 0.925531 -0.941202
HEad  -20.8902 -0.468528 1.98839
LeftShoulder1  0.115183 3.13265 -24.6537
LeftArm  -22.6733 4.27689 -39.7883
LeftForeArm  79.3533 -79.2807 -92.9113
LeftHand  -0.0218829 5.79033 1.95936
RightShoulder  -0.247619 -4.37288 21.2262
RightArm  -15.6616 4.30988 44.8481
RightForeArm  109.575 75.5327 130.783
RightHand  -1.3354 8.37555 -11.5779
LeftUpLeg  -24.8069 1.3988 -4.40461
LeftLeg  38.4403 -4.4923 -3.422
LeftFoot  -6.29138 -0.0938106 2.99425
LeftToes  -1.20963e-009 8.6283e-011 2.04439e-011
222
root  13.5423 35.886 -1.69811 33.597 79.4535 40.4257
RightUpLeg  -1.72221 5.58717 -12.5896
RightLeg  69.6306 1.86199 4.96494
RightFoot  8.30116 -1.0739 6.21085
RightToes  5.82063e-011 0 -3.6325e-017
Spine  12.7788 1.05653 -3.28519
Spine1  9.58557 0.4008 -1.26374
HEad  -21.7258 0.642817 1.67707
LeftShoulder1  0.0920283 3.20301 -24.3072
LeftArm  -23.0188 1.65219 -39.475
LeftForeArm  76.7812 -79.2946 -90.2337
LeftHand  -0.0135053 6.16399 2.47358
RightShoulder  -0.190997 -4.18251 20.6004
RightArm  -16.0831 6.85522 45.0405
RightForeArm  106.048 76.2232 127.242
RightHand  -1.35198 8.21032 -11.8443
LeftUpLeg  -23.5062 0.54166 -6.59232
LeftLeg  41.1678 -2.93705 -2.34845
LeftFoot  -10.0281 0.0160818 3.7241
LeftToes  -1.20963e-009 8.6283e-011 2.04439e-011
